<?xml version="1.0" encoding="UTF-8"?>
<!DOCTYPE svg PUBLIC "-//W3C//DTD SVG 1.1//EN" "http://www.w3.org/Graphics/SVG/1.1/DTD/svg11.dtd">
<!-- Creator: CorelDRAW X7 -->
<svg xmlns="http://www.w3.org/2000/svg" xml:space="preserve" width="14.33in" height="10.5233in" version="1.1" style="shape-rendering:geometricPrecision; text-rendering:geometricPrecision; image-rendering:optimizeQuality; fill-rule:evenodd; clip-rule:evenodd"
viewBox="0 0 14330 10523"
 xmlns:xlink="http://www.w3.org/1999/xlink">
 <defs>
  <style type="text/css">
   <![CDATA[
    .str0 {stroke:#7E8DE8;stroke-width:51.8386}
    .str1 {stroke:#D6E1EE;stroke-width:25.9213}
    .fil2 {fill:none}
    .fil11 {fill:#01082D}
    .fil10 {fill:#112956}
    .fil7 {fill:#54C59A}
    .fil8 {fill:#6EE1C0}
    .fil16 {fill:#7AC3FF}
    .fil5 {fill:#87C8F4}
    .fil6 {fill:#B5D8F5}
    .fil0 {fill:#D6E1EE}
    .fil4 {fill:#EBF4FF}
    .fil13 {fill:#F29C81}
    .fil12 {fill:#F4AE92}
    .fil9 {fill:#F7B89C}
    .fil3 {fill:#FAFCFF}
    .fil14 {fill:#FF6D4A}
    .fil15 {fill:#FF9090}
    .fil1 {fill:white}
   ]]>
  </style>
 </defs>
 <g id="Layer_x0020_1">
  <metadata id="CorelCorpID_0Corel-Layer"/>
  <g id="_1924409530752">
   <path id="Fill-3" class="fil0" d="M10458 1540c-11,-9 -65,31 -76,21 -1,0 -76,39 -76,39l-5364 -171c-422,491 -390,939 -1157,1491 -122,87 -233,155 -338,210l0 5979 8154 0 0 -6105c-756,-899 -592,-987 -1143,-1464z"/>
   <path id="Fill-5" class="fil1" d="M11330 9109l-8154 0 0 -6518c0,-642 519,-1162 1159,-1162l5836 0c640,0 1159,520 1159,1162l0 6518z"/>
   <g>
    <path id="Fill-7" class="fil1" d="M3190 9091l0 -6515c0,-641 520,-1161 1161,-1161l5848 0c642,0 1162,520 1162,1161l0 6515 -8171 0zm0 0l0 0 0 0z"/>
   </g>
   <path id="Stroke-9" class="fil2 str0" d="M3190 9091l0 -6515c0,-641 520,-1161 1161,-1161l5848 0c642,0 1162,520 1162,1161l0 6515"/>
   <g>
    <path id="Fill-11" class="fil3" d="M3739 9091l0 -5794c0,-107 87,-194 193,-194l6620 0c107,0 193,87 193,194l0 5794 -7006 0zm0 0l0 0 0 0z"/>
   </g>
   <path id="Stroke-13" class="fil2 str1" d="M3739 9091l0 -5794c0,-107 87,-194 193,-194l6620 0c107,0 193,87 193,194l0 5794"/>
   <path id="Fill-15" class="fil1" d="M3176 4744l-96 0c-40,0 -73,-35 -73,-78l0 -622c0,-43 33,-78 73,-78l96 0 0 778z"/>
   <path id="Stroke-17" class="fil2 str0" d="M3176 4744l-96 0c-40,0 -73,-35 -73,-78l0 -622c0,-43 33,-78 73,-78l96 0 0 778z"/>
   <path id="Fill-19" class="fil1" d="M3176 5556l-96 0c-40,0 -73,-35 -73,-77l0 -623c0,-43 33,-78 73,-78l96 0 0 778z"/>
   <path id="Stroke-21" class="fil2 str0" d="M3176 5556l-96 0c-40,0 -73,-35 -73,-77l0 -623c0,-43 33,-78 73,-78l96 0 0 778z"/>
   <path id="Fill-23" class="fil1" d="M11330 4135l84 0c47,0 85,38 85,84l0 814c0,46 -38,83 -85,83l-84 0 0 -981z"/>
   <path id="Stroke-25" class="fil2 str0" d="M11330 4135l84 0c47,0 85,38 85,84l0 814c0,46 -38,83 -85,83l-84 0 0 -981z"/>
   <path id="Fill-27" class="fil4" d="M7986 2410l-1432 0c-71,0 -130,-61 -130,-136 0,-74 59,-135 130,-135l1432 0c72,0 130,61 130,135 0,75 -58,136 -130,136z"/>
   <path id="Fill-29" class="fil0" d="M7986 2410l-1432 0c-71,0 -130,-61 -130,-136 0,-74 59,-135 130,-135l1432 0c72,0 130,61 130,135 0,75 -58,136 -130,136z"/>
   <path id="Fill-31" class="fil0" d="M5798 2477l0 0c-121,0 -220,-98 -220,-219 0,-122 99,-220 220,-220 122,0 220,98 220,220 0,121 -98,219 -220,219z"/>
   <path id="Fill-35" class="fil0" d="M8590 2308l0 0c-38,0 -68,-30 -68,-67 0,-38 30,-68 68,-68 37,0 67,30 67,68 0,37 -30,67 -67,67z"/>
   <path id="Fill-1" class="fil5" d="M8857 5663c-74,-5 -144,34 -179,100l-1567 2911c-66,123 19,274 159,280l1572 69c74,4 143,-36 177,-102l1502 -2881c64,-122 -227,-468 -364,-477l-1300 100z"/>
   <path id="Fill-3_0" class="fil6" d="M8649 5564l1508 -1c137,9 219,156 156,278l-1503 2881c-34,66 -103,106 -177,102l-1571 -69c-140,-6 -226,-157 -159,-280l1566 -2812c35,-65 106,-104 180,-99z"/>
   <path id="Fill-5_1" class="fil5" d="M9264 5301l920 0c58,0 106,-47 106,-105l0 -276c0,-58 -48,-105 -106,-105l-920 0c-58,0 -105,47 -105,105l0 276c0,58 47,105 105,105z"/>
   <path id="Fill-7_2" class="fil6" d="M9037 5301l920 0c58,0 105,-47 105,-105l0 -276c0,-58 -47,-105 -105,-105l-920 0c-59,0 -106,47 -106,105l0 276c0,58 47,105 106,105z"/>
   <polygon id="Fill-9" class="fil5" points="9956,5570 9857,5570 9857,5301 9956,5301 "/>
   <polygon id="Fill-11_3" class="fil5" points="9274,5570 9175,5570 9175,5301 9274,5301 "/>
   <path id="Fill-12" class="fil7" d="M11802 6907c26,-119 -50,-158 -96,-162 -47,-4 -110,-60 -108,-131 2,-130 66,-211 19,-275 -39,-55 -126,-2 -193,-65 -59,-56 -13,-119 -69,-203 -57,-86 -172,-120 -252,-123 -111,-3 -125,54 -208,35 -95,-24 -109,-109 -212,-124 -36,-5 -67,-5 -121,18 -139,61 -280,95 -227,254 52,158 145,253 221,261 76,7 143,-28 203,5 60,34 36,131 17,208 -19,77 60,153 160,128 101,-26 199,-28 259,58 56,81 -76,201 -40,282 37,81 141,112 227,139 30,9 220,7 220,7 5,-10 173,-192 200,-312z"/>
   <path id="Fill-13" class="fil1" d="M11546 7522l40 9 29 -142c17,-83 7,-181 6,-185 -19,-176 -94,-512 -381,-792 -200,-195 -425,-283 -578,-322l-10 40c148,38 365,123 560,312 277,270 350,596 368,766 0,1 10,96 -5,173l-29 141z"/>
   <path id="Fill-14" class="fil8" d="M11775 7292c18,-7 451,-86 618,-228 165,-141 99,-278 37,-334 -61,-56 -91,-201 -13,-301 143,-182 321,-229 323,-370 3,-120 -177,-139 -204,-300 -23,-142 109,-182 119,-361 10,-184 -115,-355 -226,-445 -154,-124 -236,-57 -332,-174 -111,-136 -38,-271 -169,-403 -46,-46 -90,-80 -191,-104 -262,-63 -499,-165 -595,116 -96,281 -65,515 34,608 100,92 233,113 283,225 49,112 -89,225 -198,314 -110,88 -79,282 90,353 170,72 312,173 305,360 -7,175 -323,204 -359,358 -36,155 79,310 173,440 33,46 305,246 305,246z"/>
   <path id="Fill-15_4" class="fil1" d="M11601 7545c4,-5 403,-439 430,-1053 27,-610 -138,-1201 -140,-1206l-247 -638 -38 14 246 637c1,4 164,588 137,1191 -26,600 -414,1022 -418,1027l30 28z"/>
   <path id="Fill-16" class="fil5" d="M10797 7564l1643 0c22,0 39,-18 39,-40l0 -130c0,-22 -17,-39 -39,-39l-1643 0c-21,0 -39,17 -39,39l0 130c0,22 18,40 39,40z"/>
   <path id="Fill-17" class="fil6" d="M11104 8825l1029 0c55,0 101,-41 107,-95l137 -1167 -1517 0 137 1167c6,54 52,95 107,95z"/>
   <path id="Fill-18" class="fil9" d="M6328 5244c0,0 94,-46 175,-194 82,-148 67,-428 125,-487 58,-58 234,-101 234,-101l-189 790 -65 86 -280 -94z"/>
   <path id="Fill-19_5" class="fil10" d="M7185 4115c0,0 -236,71 -295,177 -47,84 -205,777 -269,1060 -11,49 133,144 178,123l274 -227 306 -1162 -194 29z"/>
   <path id="Fill-20" class="fil11" d="M7285 4167c0,0 -236,71 -295,177 -47,84 -205,777 -268,1060 -11,49 39,89 84,68l367 -172 307 -1162 -195 29z"/>
   <path id="Fill-21" class="fil12" d="M8664 6513c-222,-297 -524,-212 -717,-490 -136,-197 -125,-443 -93,-623l-498 -62c-4,126 -31,304 -156,436 -175,184 -361,87 -721,218l866 521 1319 0z"/>
   <path id="Fill-22" class="fil13" d="M7438 5634c46,36 107,47 163,32l233 -65c1,-72 9,-140 20,-201l-498 -62c-2,61 -10,135 -31,209l113 87z"/>
   <g>
    <path id="Fill-23_6" class="fil9" d="M7325 4061l-174 999c-27,132 23,267 130,349l157 121c46,36 107,48 163,32l301 -84c107,-29 194,-108 234,-211l92 -241 186 -591 -1089 -374zm0 0l0 0 0 0z"/>
   </g>
   <path id="Fill-24" class="fil10" d="M7605 4154c-16,12 -266,191 -467,94 -225,-108 -236,-486 -122,-716 152,-306 555,-411 826,-332 188,54 167,157 446,316 291,167 594,215 718,234 294,44 428,2 587,126 74,58 141,138 191,247 187,405 -93,779 -155,872 -62,94 -467,405 -654,467 -80,27 -621,185 -779,-31 -169,-232 231,-718 63,-872 -75,-68 -177,7 -343,-62 -168,-70 -261,-228 -311,-343z"/>
   <path id="Fill-25" class="fil11" d="M9131 5244c-374,125 -530,-31 -654,-155 -65,-65 -79,-237 -134,-397 -57,203 -292,593 -147,739 156,156 592,93 779,31 187,-62 592,-373 654,-467 5,-8 12,-18 20,-30 -134,96 -322,214 -518,279z"/>
   <polygon id="Fill-26" class="fil14" points="5681,6488 5503,6692 5959,6301 "/>
   <path id="Fill-27_7" class="fil15" d="M10532 6801c-183,69 -398,167 -623,312 -394,252 -663,543 -833,762 -56,-147 -136,-372 -210,-654 -125,-473 -88,-555 -202,-708 -208,-279 -487,-221 -679,-442 -95,126 -245,209 -415,209 -250,0 -458,-177 -507,-412 -143,56 -315,26 -584,124 0,0 -118,-11 -785,509 -9,7 -20,-4 -13,-13 98,-122 311,-386 398,-496 92,-117 239,-298 529,-654l-280 -94c-267,325 -500,579 -669,758 0,0 -670,706 -670,1048 0,31 13,49 13,49 43,66 174,45 174,45l1028 -312c70,642 50,1080 15,1370 -8,66 -37,303 -78,623l2087 0 99 -1269c77,216 266,686 547,810 63,28 121,53 202,54 329,4 415,-399 971,-894 7,-6 208,-162 609,-476l-124 -249z"/>
   <polygon id="Fill-28" class="fil14" points="8228,7055 8327,7556 8228,8825 "/>
   <polygon id="Fill-29_8" class="fil14" points="6204,6832 6457,6716 6219,8202 "/>
   <path id="Fill-30" class="fil16" d="M868 9105l12594 0c0,-154 -126,-280 -281,-280l-12032 0c-155,0 -281,126 -281,280z"/>
   <path id="Fill-31_9" class="fil9" d="M10532 6801c0,0 264,-171 477,-213 213,-41 47,52 47,52l-145 49c0,0 244,-80 327,-59 83,21 114,171 114,171 0,0 -177,47 -312,73 -135,26 -384,176 -384,176l-124 -249z"/>
   <path id="Fill-33" class="fil3" d="M6156 4331c0,72 58,131 130,131 72,0 130,-59 130,-131 0,-71 -58,-130 -130,-130 -72,0 -130,59 -130,130z"/>
   <path id="Fill-36" class="fil1" d="M7295 8825l534 0c43,0 77,-34 77,-76l0 -585c0,-42 -34,-76 -77,-76l-534 0c-42,0 -76,34 -76,76l0 585c0,42 34,76 76,76z"/>
   <g>
    <path id="Fill-37" class="fil1" d="M7177 8559c64,0 117,-52 117,-117 0,-64 -53,-116 -117,-116 -65,0 -117,52 -117,116 0,65 52,117 117,117l0 0zm0 -330c118,0 214,95 214,213 0,119 -96,214 -214,214 -118,0 -214,-95 -214,-214 0,-118 96,-213 214,-213z"/>
   </g>
  </g>
 </g>
</svg>
