<?xml version="1.0" encoding="UTF-8"?>
<!DOCTYPE svg PUBLIC "-//W3C//DTD SVG 1.1//EN" "http://www.w3.org/Graphics/SVG/1.1/DTD/svg11.dtd">
<!-- Creator: CorelDRAW X7 -->
<svg xmlns="http://www.w3.org/2000/svg" xml:space="preserve" width="14.33in" height="10.5233in" version="1.1" style="shape-rendering:geometricPrecision; text-rendering:geometricPrecision; image-rendering:optimizeQuality; fill-rule:evenodd; clip-rule:evenodd"
viewBox="0 0 14330 10523"
 xmlns:xlink="http://www.w3.org/1999/xlink">
 <defs>
  <style type="text/css">
   <![CDATA[
    .fil9 {fill:#050505}
    .fil23 {fill:#07A5B5}
    .fil4 {fill:#26B2ED}
    .fil24 {fill:#2C93EA}
    .fil28 {fill:#2EADB5}
    .fil2 {fill:#32C3FD}
    .fil16 {fill:#4B94D9}
    .fil26 {fill:#50B3D2}
    .fil31 {fill:#676767}
    .fil29 {fill:#73CBCF}
    .fil14 {fill:#83B4E5}
    .fil25 {fill:#87B2DA}
    .fil15 {fill:#8B8C8C}
    .fil20 {fill:#918C8F}
    .fil32 {fill:#93E4F4}
    .fil21 {fill:#A7C5BB}
    .fil10 {fill:#BEEAF0}
    .fil22 {fill:#C3EBF3}
    .fil30 {fill:#C5C5C5}
    .fil12 {fill:#C9CAC9}
    .fil19 {fill:#CDCDCD}
    .fil11 {fill:#DD542E}
    .fil6 {fill:#E0ECF8}
    .fil8 {fill:#E1EDF6}
    .fil13 {fill:#E1EEFA}
    .fil3 {fill:#E2E2E2}
    .fil7 {fill:#E35629}
    .fil27 {fill:#E55835}
    .fil17 {fill:#E6A837}
    .fil1 {fill:#E7E7E7}
    .fil0 {fill:#F6FAFB}
    .fil18 {fill:#FE936C}
    .fil5 {fill:#FF9470}
   ]]>
  </style>
 </defs>
 <g id="Layer_x0020_1">
  <metadata id="CorelCorpID_0Corel-Layer"/>
  <g id="_1924201998688">
   <path class="fil0" d="M3689 4148c-135,96 -1570,67 -1817,24 -20,-318 114,-245 289,-385 173,-137 165,-279 555,-172 477,130 359,6 543,215 303,345 399,21 430,318zm800 -2564l939 0c59,149 14,70 159,111l513 78 77 162 263 27 40 311c357,-65 272,65 431,214 148,140 307,171 562,103 -116,123 -116,21 -134,171 234,64 1641,84 1765,-16 113,-107 -248,-305 -250,-309 -5,-16 -22,-12 -30,-22 140,10 280,15 422,12l939 -99c9,-3 19,-8 28,-11 9,-2 20,-7 29,-9 257,-61 721,-23 984,49 13,3 23,6 36,9 111,25 260,29 387,55 221,46 148,-3 245,159l588 56c2,92 -2,157 40,240l280 394c73,129 8,41 117,356 81,237 -53,603 -83,987 -47,598 -72,94 -139,543 -24,154 -8,148 -62,251l-106 181c-458,638 -61,171 -203,599 -48,145 39,-3 -70,88l-96 59c-23,358 -215,528 -140,883 200,457 -211,-303 70,92l48 71c21,57 8,150 9,215 10,10 24,20 33,27 554,432 116,266 509,394 0,158 -16,138 41,265 4,9 19,39 22,32 3,-7 15,22 24,32 -962,-146 -2411,-282 -3441,-234l0 -55c195,-68 241,-110 299,-347l-94 -14c101,-375 354,-523 401,-710 74,-290 -205,-584 -510,-398 -120,155 -68,151 -60,379 15,391 -219,347 -148,921l15 53 -70 164 -6 -3194 759 9c264,-17 184,-18 217,-81l-5 -907c110,100 1,54 203,70l1510 -10c-110,-415 2,-274 -323,-475 -142,-88 -84,-104 -185,-198l-249 -152c-298,-83 -479,104 -674,128 -168,21 -194,-30 -341,41 -59,28 -120,101 -248,153l-583 -50 0 -309 257 -22 8 -191 -347 9 0 510 -754 -4c-364,32 -547,134 -622,454l-27 143c-183,-5 -215,18 -355,77 -317,11 -646,45 -919,-93 -104,-53 -195,-145 -267,-240 -91,-123 -132,-190 -82,-336l4 -80 34 -615c-4,-50 0,-111 -12,-161 -47,-189 -25,-78 -67,-131 -115,-265 -686,-305 -709,105 -26,446 1,168 -136,456 -68,146 -30,360 -47,533l-264 457c-157,281 -553,1240 -474,1474 -53,155 -63,187 -181,269 -137,95 -152,57 -236,233 195,26 209,4 372,-72 14,157 25,77 -7,181l-252 -31 15 116c0,6 -5,20 -6,25 -1,6 -6,19 -6,24 -5,98 -76,80 90,74l-135 -99c258,6 211,81 315,-3l25 -98 347 20c5,-9 20,5 27,11 -38,238 105,151 -211,177 -2,0 -104,-13 -112,-15 -223,-55 -41,14 -55,-36 -10,5 -24,17 -28,18 -4,1 -21,7 -24,7 -91,21 23,32 -32,-24 169,48 96,-1 42,154 601,-101 48,159 437,70l-16 71c-362,133 -604,139 -873,368l-244 51 -181 -22c-44,73 -80,-84 -3,353 20,118 41,236 59,356 -157,73 -84,-53 -114,167 -2,13 10,153 10,187l-671 9 -10 278c-215,81 -440,95 -663,182 54,-164 70,-22 -1,-123 138,270 146,-338 144,-423 -5,-258 5,-158 68,-343 52,-153 -18,97 22,-73 16,-69 14,-102 18,-170 277,-159 69,49 224,-239 88,-164 100,-94 141,-233 58,-194 -44,-43 96,-254 81,-122 170,-390 170,-619 -127,-104 -132,5 -252,-208 -5,-9 -17,-16 -20,-37 -4,-22 -12,-28 -22,-39 -271,0 -374,-46 -676,-42 -396,5 -167,-84 -587,-94l-33 -265 -176 -61c-7,-51 -15,-169 -36,-210 -48,-100 -23,-76 -131,-121l0 -618c281,-98 -83,-112 288,-704 122,-197 -12,-105 142,-336 139,-211 32,-108 101,-234 115,-209 -108,92 77,-77 384,-352 413,-143 442,-485 305,-22 220,-34 337,-193l252 -18c135,-220 -38,-93 211,-160 266,-73 77,63 209,-159 510,0 160,-151 629,-176l550 -65c145,-43 99,39 159,-111zm-1179 1051c459,-174 165,-349 643,-212 248,70 215,-1 390,157 164,147 194,66 331,181 -144,121 -492,54 -724,54 -524,-1 -668,87 -640,-180z"/>
   <path class="fil0" d="M7342 4223c-64,168 -220,186 -424,248 -191,58 -343,80 -561,57l-94 40 75 346c170,456 747,2436 680,2886l38 232c74,33 1600,123 1767,-6 -105,-92 -103,-94 -244,-82 -232,20 -120,86 -261,-55l523 -11c42,47 76,98 110,149 -45,-261 -6,-69 -158,-230 -190,-79 -310,-181 -353,-425l227 -8 68 -66 -574 -414c359,-55 760,273 664,584l63 173 37 64c77,-149 52,-2453 28,-2788l-1431 -18 40 -32 -9 -633 -211 -11z"/>
   <path class="fil1" d="M8676 8371c-8,-102 -44,-49 33,-129 128,-136 -26,-3 134,-74 -25,137 -9,196 -167,203zm816 568l-3682 0 -100 -30c-460,-82 -2639,27 -3575,-382l8 -53c223,-87 448,-101 663,-182 626,-35 1213,-127 1815,-149 619,-22 1407,5 2018,-70l-19 142c-4,-196 -2,-32 84,-151l35 2 48 72c53,152 56,108 72,256l-41 213c174,60 722,90 898,-4 -44,-134 -144,-100 -289,-152 -102,-37 -192,-96 -317,-142l-58 -184 4 -93c74,33 1600,123 1767,-6 144,31 111,113 137,301l191 66 148 -10 -84 -89c-4,-4 -16,-15 -24,-23l32 -144 112 -17c1030,-48 2479,88 3441,234 176,35 333,51 462,137l0 55c-311,187 -1360,252 -1781,289 -360,32 -1784,39 -1965,114z"/>
   <path class="fil0" d="M5961 6479c-14,158 -79,426 -180,511 -105,88 -407,108 -558,125 -351,39 -848,70 -1211,45l-176 22 -138 651c-121,-50 -106,-177 -107,-182 -157,73 -84,-53 -114,167 -2,13 10,153 10,187l-671 9 -10 278c626,-35 1213,-127 1815,-149 619,-22 1407,5 2018,-70l-19 142c-4,-196 -2,-32 84,-151 -32,-226 -241,-522 -351,-773 -87,-199 -252,-661 -293,-856 -103,35 -55,-12 -99,44z"/>
   <path class="fil2" d="M4833 6545c-362,133 -604,139 -873,368 7,181 -13,104 52,247 363,25 860,-6 1211,-45 151,-17 453,-37 558,-125 101,-85 166,-353 180,-511 42,-197 0,-52 77,-98 -31,-172 131,-910 158,-1137 23,-192 98,-202 -50,-357l-322 -38 -480 35c-42,251 -121,478 -133,735 -14,318 61,548 83,845l-461 81z"/>
   <path class="fil3" d="M5202 3542l-264 457c-157,281 -553,1240 -474,1474l108 -19 -9 52c186,-62 197,-216 354,-558l311 -641 4 -133c7,-10 17,-23 21,-30 5,-6 14,-21 20,-29 5,-8 14,-19 19,-27l135 -238c37,355 2,604 120,946l277 53 322 38 192 27 -75 -346 94 -40c-126,-80 -124,-62 -162,-218 -24,-97 -40,-189 -61,-287 -35,-171 -67,-400 -100,-579l12 -77 -8 -132c-486,-89 -336,-173 -660,157l-153 133c-3,-7 -15,12 -23,17z"/>
   <path class="fil4" d="M6038 6381l22 54c41,195 206,657 293,856 110,251 319,547 351,773l35 2 246 14 33 -280c67,-450 -510,-2430 -680,-2886l-192 -27c148,155 73,165 50,357 -27,227 -189,965 -158,1137z"/>
   <path class="fil5" d="M9239 3803l54 177c-208,52 -73,19 -178,-16l-163 142c16,-50 144,-346 128,-428 -2,-10 -5,-22 -8,-31 -87,-212 -6,-46 -79,-80l-29 79c-29,172 16,240 -80,410l-49 14c84,50 46,-46 61,123l32 657 1210 -13 -5 -907c-148,-330 -69,-202 -307,-443l-583 -50 -4 366z"/>
   <path class="fil6" d="M9826 3487c238,241 159,113 307,443 110,100 1,54 203,70l1510 -10c-110,-415 2,-274 -323,-475 -142,-88 -84,-104 -185,-198l-249 -152c-298,-83 -479,104 -674,128 -168,21 -194,-30 -341,41 -59,28 -120,101 -248,153z"/>
   <path class="fil0" d="M4563 5506c-61,233 -51,247 48,436l-102 -42c-67,-18 -33,-17 -90,3 14,157 25,77 -7,181l-252 -31 15 116c0,6 -5,20 -6,25 -1,6 -6,19 -6,24 -5,98 -76,80 90,74l-135 -99c258,6 211,81 315,-3l25 -98 347 20c5,-9 20,5 27,11 -38,238 105,151 -211,177 -2,0 -104,-13 -112,-15 -223,-55 -41,14 -55,-36 -10,5 -24,17 -28,18 -4,1 -21,7 -24,7 -91,21 23,32 -32,-24 169,48 96,-1 42,154 601,-101 48,159 437,70l-16 71 461 -81c-22,-297 -97,-527 -83,-845 12,-257 91,-484 133,-735l-14 -484c-246,-19 3,22 -119,-84l17 -9 -311 641c-157,342 -168,496 -354,558z"/>
   <path class="fil6" d="M3689 4148c-31,-297 -127,27 -430,-318 -184,-209 -66,-85 -543,-215 -390,-107 -382,35 -555,172 -175,140 -309,67 -289,385 247,43 1682,72 1817,-24z"/>
   <path class="fil7" d="M8953 4917c70,138 -1,2568 35,2972l18 336c-17,83 -17,60 -46,102l191 66 11 -122 6 -168 -6 -3194 759 9c264,-17 184,-18 217,-81l-1210 13 -1366 17 -40 32 1431 18z"/>
   <path class="fil8" d="M7473 2590c-116,123 -116,21 -134,171 234,64 1641,84 1765,-16 113,-107 -248,-305 -250,-309 -5,-16 -22,-12 -30,-22 -221,-275 -384,-188 -684,-112 -198,50 -221,-31 -352,96 -113,110 -84,183 -315,192z"/>
   <path class="fil9" d="M5202 3542c8,-5 20,-24 23,-17l153 -133c324,-330 174,-246 660,-157l8 132 93 -12 34 -615c-100,189 33,410 -258,332 -218,-58 -267,-196 -284,-395 119,-64 118,-28 246,-90 124,-59 107,-73 217,-139 -115,-265 -686,-305 -709,105 -26,446 1,168 -136,456 -68,146 -30,360 -47,533z"/>
   <path class="fil10" d="M9223 7886c97,-69 190,-152 317,-192 101,-375 354,-523 401,-710 74,-290 -205,-584 -510,-398 -120,155 -68,151 -60,379 15,391 -219,347 -148,921z"/>
   <path class="fil11" d="M7785 3884l-6 169 1056 17 49 -14c-39,-469 -162,-449 -477,-626 -364,32 -547,134 -622,454z"/>
   <path class="fil12" d="M6357 4528c218,23 370,1 561,-57 204,-62 360,-80 424,-248l-41 -71 102 -48c-317,11 -646,45 -919,-93 -104,-53 -195,-145 -267,-240 -91,-123 -132,-190 -82,-336l-101 9c33,179 65,408 100,579 21,98 37,190 61,287 38,156 36,138 162,218z"/>
   <path class="fil13" d="M3310 2635c-28,267 116,179 640,180 232,0 580,67 724,-54 -137,-115 -167,-34 -331,-181 -175,-158 -142,-87 -390,-157 -478,-137 -184,38 -643,212z"/>
   <path class="fil14" d="M8495 4431l-174 78 -137 -78c-73,170 -213,175 -359,268 -148,94 -54,74 -218,152l4 -615 -58 -2 9 633 1366 -17 -32 -657 -34 23 13 491c-102,-46 -21,-3 -126,-62 -255,-144 -216,-109 -254,-214z"/>
   <path class="fil6" d="M7684 4111c143,115 382,221 500,320l137 78 174 -78 367 -215 34 -23c-15,-169 23,-73 -61,-123l-1056 -17c-94,35 -35,-30 -95,58z"/>
   <path class="fil15" d="M6173 2740c-4,-50 0,-111 -12,-161 -47,-189 -25,-78 -67,-131 -110,66 -93,80 -217,139 -128,62 -127,26 -246,90 17,199 66,337 284,395 291,78 158,-143 258,-332z"/>
   <path class="fil16" d="M7611 4236l-4 615c164,-78 70,-58 218,-152 146,-93 286,-98 359,-268 -118,-99 -357,-205 -500,-320 -69,119 46,72 -73,125z"/>
   <path class="fil17" d="M6859 8394l-41 213c174,60 722,90 898,-4 -44,-134 -144,-100 -289,-152 -102,-37 -192,-96 -317,-142 -29,88 14,35 -50,98l-201 -13z"/>
   <path class="fil18" d="M8884 4056c96,-170 51,-238 80,-410l29 -79c73,34 -8,-132 79,80 3,9 6,21 8,31 16,82 -112,378 -128,428l163 -142 41 -146 7 -25 -2 -359 -754 -4c315,177 438,157 477,626z"/>
   <path class="fil17" d="M3591 7651c1,5 -14,132 107,182l138 -651c-138,-57 -110,-44 -120,-218l-181 -22c-44,73 -80,-84 -3,353 20,118 41,236 59,356z"/>
   <path class="fil19" d="M5232 4174c81,53 91,-74 50,61 -40,134 155,6 -71,81 122,106 -127,65 119,84l14 484 480 -35 -277 -53c-118,-342 -83,-591 -120,-946l-135 238c-5,8 -14,19 -19,27 -6,8 -15,23 -20,29 -4,7 -14,20 -21,30z"/>
   <path class="fil20" d="M4419 5903c57,-20 23,-21 90,-3l102 42c-99,-189 -109,-203 -48,-436l9 -52 -108 19c-53,155 -63,187 -181,269 -137,95 -152,57 -236,233 195,26 209,4 372,-72z"/>
   <path class="fil21" d="M8925 7705l10 120 -112 -12 -30 -16c152,161 113,-31 158,230 -34,-51 -68,-102 -110,-149l-523 11c141,141 29,75 261,55 141,-12 139,-10 244,82 144,31 111,113 137,301 29,-42 29,-19 46,-102l-18 -336c-36,-404 35,-2834 -35,-2972 24,335 49,2639 -28,2788z"/>
   <path class="fil22" d="M8667 7364c76,103 -3,50 158,104 96,-311 -305,-639 -664,-584l574 414 -68 66z"/>
   <path class="fil23" d="M8793 7797l30 16c-35,-82 -16,-69 -73,-135 88,-74 -42,-36 138,-37l-63 -173c-161,-54 -82,-1 -158,-104l-227 8c43,244 163,346 353,425z"/>
   <path class="fil16" d="M8495 4431c38,105 -1,70 254,214 105,59 24,16 126,62l-13 -491 -367 215z"/>
   <path class="fil24" d="M9161 3434l2 359c4,-11 11,-39 12,-33l49 -622 276 -32 8 -191 -347 9 0 510z"/>
   <path class="fil23" d="M9223 7886l15 53 18 95 79 21c195,-68 241,-110 299,-347l-94 -14c-127,40 -220,123 -317,192z"/>
   <path class="fil20" d="M6859 8394l201 13c64,-63 21,-10 50,-98l-58 -184 -265 13c53,152 56,108 72,256z"/>
   <path class="fil20" d="M7403 4104l-102 48 41 71 211 11 58 2c119,-53 4,-6 73,-125 60,-88 1,-23 95,-58l6 -169 -27 143c-183,-5 -215,18 -355,77z"/>
   <path class="fil20" d="M3716 6964c10,174 -18,161 120,218l176 -22c-65,-143 -45,-66 -52,-247l-244 51z"/>
   <path class="fil25" d="M9163 3793l-7 25 83 -15 4 -366 0 -309 257 -22 -276 32 -49 622c-1,-6 -8,22 -12,33z"/>
   <polygon class="fil26" points="6739,8066 6787,8138 7052,8125 7056,8032 7018,7800 6985,8080 "/>
   <path class="fil27" d="M9115 3964c105,35 -30,68 178,16l-54 -177 -83 15 -41 146z"/>
   <path class="fil28" d="M8823 7813l112 12 -10 -120 -37 -64c-180,1 -50,-37 -138,37 57,66 38,53 73,135z"/>
   <path class="fil28" d="M8676 8371c158,-7 142,-66 167,-203 -160,71 -6,-62 -134,74 -77,80 -41,27 -33,129z"/>
   <polygon class="fil29" points="9168,8103 9162,8271 9191,8271 9223,8127 9335,8110 9335,8055 9256,8034 9238,7939 "/>
   <path class="fil30" d="M9151 8393l148 -10 -84 -89c-4,-4 -16,-15 -24,-23l-29 0 -11 122z"/>
   <polygon class="fil31" points="6034,3444 6135,3435 6139,3355 6046,3367 "/>
   <path class="fil9" d="M5228 4307l-17 9c226,-75 31,53 71,-81 41,-135 31,-8 -50,-61l-4 133z"/>
   <path class="fil32" d="M5961 6479c44,-56 -4,-9 99,-44l-22 -54c-77,46 -35,-99 -77,98z"/>
  </g>
 </g>
</svg>
